<svg xmlns="http://www.w3.org/2000/svg" width="17" height="17" viewBox="0 0 17 17" fill="none">
  <path d="M8.09961 0.218262C3.68133 0.218262 0.0996094 3.79998 0.0996094 8.21826C0.0996094 12.6365 3.68133 16.2183 8.09961 16.2183C12.5179 16.2183 16.0996 12.6365 16.0996 8.21826C16.0945 3.80212 12.5158 0.223405 8.09961 0.218262Z" fill="#14BF96"/>
  <path d="M12.7176 5.68471L8.1543 11.8774C8.04547 12.0218 7.88318 12.1164 7.70391 12.1399C7.52464 12.1635 7.34342 12.1141 7.20096 12.0027L3.9423 9.39738C3.65474 9.16726 3.60818 8.7476 3.8383 8.46004C4.06842 8.17249 4.48807 8.12593 4.77563 8.35604L7.49296 10.53L11.6443 4.89604C11.7804 4.69177 12.0178 4.57883 12.2622 4.60207C12.5065 4.62531 12.7184 4.78096 12.8136 5.00723C12.9088 5.23349 12.8719 5.49377 12.7176 5.68471Z" fill="white"/>
</svg>