<?xml version="1.0" encoding="UTF-8"?>
<svg id="Layer_1" data-name="Layer 1" xmlns="http://www.w3.org/2000/svg" viewBox="0 0 512 512">
  <defs>
    <style>
      .cls-1 {
        fill: #00a57d;
      }

      .cls-1, .cls-2 {
        stroke-width: 0px;
      }

      .cls-2 {
        fill: #fff;
      }
    </style>
  </defs>
  <circle class="cls-1" cx="256" cy="256" r="256"/>
  <g>
    <path class="cls-2" d="M301.36,116h-54.52c-24.7,0-44.26,0-59.57,2.07-15.76,2.13-28.51,6.61-38.57,16.71-10.06,10.1-14.52,22.9-16.64,38.72-2.06,15.37-2.06,35.02-2.06,59.81v81.73c0,21.11,12.88,39.21,31.18,46.79-.94-12.73-.94-30.6-.94-45.46v-70.14c0-17.94,0-33.4,1.66-45.78,1.78-13.27,5.78-25.99,16.06-36.3,10.27-10.32,22.94-14.34,36.16-16.12,12.33-1.66,27.73-1.66,45.6-1.66h1.33s40.32,0,40.32,0h1.33c17.87,0,33.24,0,45.57,1.66-7.38-18.76-25.59-32.02-46.89-32.02Z"/>
    <path class="cls-2" d="M180.4,247.56c0-38.17,0-57.25,11.81-69.11,11.81-11.86,30.82-11.86,68.83-11.86h40.32c38.01,0,57.02,0,68.83,11.86,11.81,11.86,11.81,30.94,11.81,69.11v67.47c0,38.17,0,57.25-11.81,69.11-11.81,11.86-30.82,11.86-68.83,11.86h-40.32c-38.01,0-57.02,0-68.83-11.86-11.81-11.86-11.81-30.94-11.81-69.11v-67.47Z"/>
  </g>
</svg>