<?xml version="1.0" encoding="UTF-8"?>
<svg id="Layer_1" data-name="Layer 1" xmlns="http://www.w3.org/2000/svg" viewBox="0 0 512 512">
  <defs>
    <style>
      .cls-1 {
        fill: #00a57d;
        stroke-width: 0px;
      }

      .cls-2 {
        fill: none;
        stroke: #fff;
        stroke-linecap: round;
        stroke-linejoin: round;
        stroke-width: 33.33px;
      }
    </style>
  </defs>
  <circle class="cls-1" cx="256" cy="256" r="256"/>
  <path class="cls-2" d="M339.33,329.33h.17M346,279.33h10c15.53,0,23.3,0,29.42,2.54,8.17,3.38,14.66,9.87,18.04,18.04,2.54,6.13,2.54,13.89,2.54,29.42s0,23.3-2.54,29.42c-3.38,8.17-9.87,14.66-18.04,18.04-6.13,2.54-13.89,2.54-29.42,2.54h-200c-15.53,0-23.3,0-29.42-2.54-8.17-3.38-14.66-9.87-18.04-18.04-2.54-6.13-2.54-13.89-2.54-29.42s0-23.3,2.54-29.42c3.38-8.17,9.87-14.66,18.04-18.04,6.13-2.54,13.89-2.54,29.42-2.54h10M256,296V112.67M256,296l-50-50M256,296l50-50"/>
</svg>