<?xml version="1.0" encoding="UTF-8"?>
<svg id="Layer_1" data-name="Layer 1" xmlns="http://www.w3.org/2000/svg" viewBox="0 0 512 512">
  <defs>
    <style>
      .cls-1 {
        fill: #00a57d;
        stroke-width: 0px;
      }

      .cls-2 {
        fill: none;
        stroke: #fff;
        stroke-linecap: round;
        stroke-linejoin: round;
        stroke-width: 24.89px;
      }
    </style>
  </defs>
  <circle class="cls-1" cx="256" cy="256" r="256"/>
  <g>
    <path class="cls-2" d="M209.33,344.67l-37.33,28v-56h-37.33c-4.95,0-9.7-1.97-13.2-5.47-3.5-3.5-5.47-8.25-5.47-13.2v-149.33c0-4.95,1.97-9.7,5.47-13.2,3.5-3.5,8.25-5.47,13.2-5.47h205.33c4.95,0,9.7,1.97,13.2,5.47,3.5,3.5,5.47,8.25,5.47,13.2v55.56"/>
    <path class="cls-2" d="M172,186h130.67"/>
    <path class="cls-2" d="M172,242h37.33"/>
    <path class="cls-2" d="M396,354h-37.33v56l-56-56h-56v-112h149.33v112Z"/>
    <path class="cls-2" d="M349.33,307.33h-56"/>
  </g>
</svg>