<?xml version="1.0" encoding="UTF-8"?>
<svg id="Layer_1" data-name="Layer 1" xmlns="http://www.w3.org/2000/svg" viewBox="0 0 90 90">
  <defs>
    <style>
      .cls-1 {
        fill: #16c097;
      }

      .cls-1, .cls-2, .cls-3, .cls-4 {
        stroke-width: 0px;
      }

      .cls-2 {
        fill: #16bf97;
      }

      .cls-3 {
        fill: #15bf96;
      }

      .cls-4 {
        fill: #fafefd;
      }
    </style>
  </defs>
  <path class="cls-3" d="M84.99,45.02c0,8.53-.01,17.06,0,25.59,0,2.41-.48,4.68-1.63,6.8-1.56,2.88-3.83,5.01-6.83,6.37-1.95.88-3.99,1.23-6.11,1.23-16.94,0-33.89,0-50.83,0-3.09,0-5.92-.79-8.46-2.58-2.53-1.78-4.3-4.13-5.32-7.05-.59-1.67-.81-3.39-.81-5.15,0-16.8.01-33.59,0-50.39,0-2.83.61-5.48,2.08-7.91,1.24-2.05,2.9-3.71,4.97-4.92,2.37-1.39,4.92-2,7.67-2,16.89.02,33.77.02,50.66,0,2.97,0,5.71.7,8.18,2.34,3.33,2.21,5.42,5.29,6.21,9.23.2,1.01.22,2.02.22,3.04,0,8.47,0,16.94,0,25.41ZM22.38,48.17c0,6.72,0,13.45,0,20.17,0,.35-.01.7.02,1.05.11,1.26,1.02,2.22,2.28,2.39.34.05.7.04,1.05.04,12.87,0,25.73,0,38.6,0,.32,0,.64,0,.96-.03,1.16-.13,1.9-.78,2.27-1.88.17-.51.14-1.04.14-1.56,0-13.42,0-26.83,0-40.25,0-.29.01-.58-.01-.87-.12-1.43-1.08-2.41-2.51-2.57-.26-.03-.53-.05-.78-.02-.66.09-1.05-.17-1.22-.8-.05-.19-.15-.38-.23-.57-1.08-2.54-2.17-5.08-3.24-7.62-.18-.43-.41-.83-.78-1.14-.88-.73-1.85-.95-2.93-.57-1.43.5-2.84,1.03-4.27,1.52-4.61,1.61-9.23,3.2-13.84,4.82-3.7,1.3-7.4,2.61-11.11,3.91-.63.22-1.25.44-1.94.47-.7.03-1.26.37-1.74.89-.59.63-.69,1.37-.69,2.18,0,6.81,0,13.62,0,20.43Z"/>
  <path class="cls-2" d="M24.42,48.21c0-6.64,0-13.27,0-19.91,0-.17,0-.35,0-.52.02-.97.13-1.09,1.13-1.09,6.67,0,13.33,0,20,0,6.17,0,12.34,0,18.52,0,.23,0,.47,0,.7,0,.69.03.87.21.91.89.01.2,0,.41,0,.61,0,13.36,0,26.72,0,40.08,0,1.49-.04,1.54-1.5,1.54-12.78,0-25.56,0-38.34,0-1.38,0-1.42-.04-1.42-1.42,0-6.72,0-13.45,0-20.17ZM49.4,30.99c.16.44.28.73.38,1.02.31.91.31,1.82-.04,2.73-.17.44-.4.57-.86.45-.93-.25-1.87-.42-2.84-.44-5.65-.12-10.92,3.15-13.16,8.51-2.28,5.45-.92,12.02,4.02,16.01,3.21,2.6,6.91,3.57,11.03,2.9,5.2-.85,9.78-4.79,11.12-10.41,1.44-6.05-1.32-12.1-6.57-15.15-.67-.39-.69-.51-.08-1.04.34-.29.72-.55,1.18-.89-.82-.26-1.5-.05-2.19.2-.11-1.6-.48-2.95-2-3.89Z"/>
  <path class="cls-2" d="M61.13,24.6h-28.95s-.02-.08-.04-.12c.55-.21,1.1-.44,1.66-.63,4.86-1.7,9.72-3.38,14.58-5.08,2.61-.91,5.21-1.84,7.81-2.76.22-.08.44-.15.67-.2.39-.09.68.05.86.41.09.18.19.36.27.55,1.04,2.46,2.08,4.93,3.11,7.39.04.11.12.2.02.43Z"/>
  <path class="cls-1" d="M49.92,38.22c.36.3.47.7.65,1.06,1.13,2.26,2.55,4.3,4.45,5.98.61.54,1.24,1.07,1.98,1.42.4.19.52.48.54.9.26,4.73-1.52,8.48-5.5,11.05-3.84,2.47-7.92,2.6-11.95.53-3.31-1.7-5.37-4.46-6.16-8.13-.34-1.56-.38-3.1-.05-4.67.1-.49.31-.68.77-.75,1.93-.3,3.8-.84,5.65-1.46,2.41-.8,4.71-1.85,6.79-3.32,1.05-.74,2-1.59,2.83-2.61ZM38.91,52.25c.2,2.61,2.95,5.67,6.63,5.72,3.64.05,6.57-2.91,6.79-5.72h-13.42Z"/>
  <g>
    <path class="cls-4" d="M67.69,28.1c0-.29.01-.58-.01-.87-.12-1.43-1.08-2.41-2.51-2.57-.26-.03-.53-.05-.78-.02-.66.09-1.05-.17-1.22-.8-.05-.19-.15-.38-.23-.57-1.08-2.54-2.17-5.08-3.24-7.62-.18-.43-.41-.83-.78-1.14-.88-.73-1.85-.95-2.93-.57-1.43.5-2.84,1.03-4.27,1.52-4.61,1.61-9.23,3.2-13.84,4.82-3.7,1.3-7.4,2.61-11.11,3.91-.63.22-1.25.44-1.94.47-.7.03-1.26.37-1.74.89-.59.63-.69,1.37-.69,2.18,0,6.81,0,13.62,0,20.43,0,6.72,0,13.45,0,20.17,0,.35-.01.7.02,1.05.11,1.26,1.02,2.22,2.28,2.39.34.05.7.04,1.05.04,12.87,0,25.73,0,38.6,0,.32,0,.64,0,.96-.03,1.16-.13,1.9-.78,2.27-1.88.17-.51.14-1.04.14-1.56,0-13.42,0-26.83,0-40.25ZM33.81,23.85c4.86-1.7,9.72-3.38,14.58-5.08,2.61-.91,5.21-1.84,7.81-2.76.22-.08.44-.15.67-.2.39-.09.68.05.86.41.09.18.19.36.27.55,1.04,2.46,2.08,4.93,3.11,7.39.04.11.12.2.02.43h-28.95s-.02-.08-.04-.12c.55-.21,1.1-.44,1.66-.63ZM65.67,28.18c0,13.36,0,26.72,0,40.08,0,1.49-.04,1.54-1.5,1.54-12.78,0-25.56,0-38.34,0-1.38,0-1.42-.04-1.42-1.42,0-6.72,0-13.45,0-20.17,0-6.64,0-13.27,0-19.91,0-.17,0-.35,0-.52.02-.97.13-1.09,1.13-1.09,6.67,0,13.33,0,20,0,6.17,0,12.34,0,18.52,0,.23,0,.47,0,.7,0,.69.03.87.21.91.89.01.2,0,.41,0,.61Z"/>
    <path class="cls-4" d="M52.49,36.6c-.67-.39-.69-.51-.08-1.04.34-.29.72-.55,1.18-.89-.82-.26-1.5-.05-2.19.2-.11-1.6-.48-2.95-2-3.89.16.44.28.73.38,1.02.31.91.31,1.82-.04,2.73-.17.44-.4.57-.86.45-.93-.25-1.87-.42-2.84-.44-5.65-.12-10.92,3.15-13.16,8.51-2.28,5.45-.92,12.02,4.02,16.01,3.21,2.6,6.91,3.57,11.03,2.9,5.2-.85,9.78-4.79,11.12-10.41,1.44-6.05-1.32-12.1-6.57-15.15ZM57.54,47.57c.26,4.73-1.52,8.48-5.5,11.05-3.84,2.47-7.92,2.6-11.95.53-3.31-1.7-5.37-4.46-6.16-8.13-.34-1.56-.38-3.1-.05-4.67.1-.49.31-.68.77-.75,1.93-.3,3.8-.84,5.65-1.46,2.41-.8,4.71-1.85,6.79-3.32,1.05-.74,2-1.59,2.83-2.61.36.3.47.7.65,1.06,1.13,2.26,2.55,4.3,4.45,5.98.61.54,1.24,1.07,1.98,1.42.4.19.52.48.54.9Z"/>
    <path class="cls-4" d="M45.54,57.97c3.64.05,6.57-2.91,6.79-5.72h-13.42c.2,2.61,2.95,5.67,6.63,5.72Z"/>
  </g>
</svg>