<?xml version="1.0" encoding="UTF-8"?>
<svg id="Layer_1" data-name="Layer 1" xmlns="http://www.w3.org/2000/svg" viewBox="0 0 512 512">
  <defs>
    <style>
      .cls-1 {
        fill: #fff;
        fill-rule: evenodd;
      }

      .cls-1, .cls-2 {
        stroke-width: 0px;
      }

      .cls-2 {
        fill: #00a57d;
      }
    </style>
  </defs>
  <circle class="cls-2" cx="256" cy="256" r="256"/>
  <path class="cls-1" d="M249.85,149.33c0-29.46,23.99-53.33,53.58-53.33s53.58,23.88,53.58,53.33-23.99,53.33-53.58,53.33c-14.94,0-28.44-6.09-38.15-15.89l-74.17,50.5c.68,3.41,1.04,6.93,1.04,10.52,0,7.12-1.41,13.93-3.96,20.15l81.32,53.43c9.23-7.52,21.04-12.04,33.91-12.04,29.59,0,53.58,23.88,53.58,53.33s-23.99,53.33-53.58,53.33-53.58-23.88-53.58-53.33c0-7.72,1.65-15.06,4.62-21.69l-80.67-53c-9.41,8.18-21.74,13.15-35.23,13.15-29.59,0-53.58-23.88-53.58-53.33s23.99-53.33,53.58-53.33c17.01,0,32.16,7.89,41.97,20.18l71.88-48.94c-1.67-5.17-2.57-10.67-2.57-16.37Z"/>
</svg>